<mxfile host="app.diagrams.net" modified="2021-02-03T08:54:09.109Z" agent="5.0 (Windows NT 10.0; Win64; x64) AppleWebKit/537.36 (KHTML, like Gecko) Chrome/88.0.4324.146 Safari/537.36" etag="tHDcEd240jrzlwJySoYY" version="14.2.5" type="github">
  <diagram id="tn4cNzxId2ibNIZhZPwV" name="Page-1">
    <mxGraphModel dx="1038" dy="580" grid="1" gridSize="10" guides="1" tooltips="1" connect="1" arrows="1" fold="1" page="1" pageScale="1" pageWidth="827" pageHeight="1169" math="0" shadow="0">
      <root>
        <mxCell id="0" />
        <mxCell id="1" parent="0" />
        <mxCell id="9v_IiIhslHG7_-4JYudw-8" value="" style="verticalLabelPosition=bottom;verticalAlign=top;html=1;shape=mxgraph.basic.orthogonal_triangle" vertex="1" parent="1">
          <mxGeometry x="360" y="260" width="100" height="70" as="geometry" />
        </mxCell>
        <mxCell id="9v_IiIhslHG7_-4JYudw-10" value="" style="shape=flexArrow;endArrow=classic;startArrow=classic;html=1;exitX=0.356;exitY=1.026;exitDx=0;exitDy=0;exitPerimeter=0;" edge="1" parent="1" source="9v_IiIhslHG7_-4JYudw-8" target="9v_IiIhslHG7_-4JYudw-11">
          <mxGeometry width="50" height="50" relative="1" as="geometry">
            <mxPoint x="390" y="320" as="sourcePoint" />
            <mxPoint x="420" y="400" as="targetPoint" />
          </mxGeometry>
        </mxCell>
        <mxCell id="9v_IiIhslHG7_-4JYudw-11" value="" style="ellipse;whiteSpace=wrap;html=1;aspect=fixed;" vertex="1" parent="1">
          <mxGeometry x="500" y="380" width="80" height="80" as="geometry" />
        </mxCell>
      </root>
    </mxGraphModel>
  </diagram>
</mxfile>
